<svg width="19" height="36" viewBox="0 0 19 36" fill="none" xmlns="http://www.w3.org/2000/svg">
<path d="M2.43391 1.00188L17.9799 16.9499C18.253 17.23 18.4058 17.6057 18.4058 17.9969C18.4058 18.3881 18.253 18.7638 17.9799 19.0439L2.43391 34.9979C2.30672 35.1285 2.15465 35.2323 1.98668 35.3032C1.8187 35.3741 1.63823 35.4107 1.45591 35.4107C1.27359 35.4107 1.09311 35.3741 0.925138 35.3032C0.757166 35.2323 0.605099 35.1285 0.477909 34.9979C0.216221 34.73 0.0697136 34.3704 0.0697136 33.9959C0.0697136 33.6214 0.216221 33.2618 0.477909 32.9939L15.0969 17.9969L0.477909 3.00288C0.217117 2.73514 0.0711784 2.37615 0.0711784 2.00238C0.0711784 1.62862 0.217117 1.26963 0.477909 1.00188C0.605099 0.871252 0.757166 0.767425 0.925138 0.696531C1.09311 0.625636 1.27359 0.589111 1.45591 0.589111C1.63823 0.589111 1.8187 0.625636 1.98668 0.696531C2.15465 0.767425 2.30672 0.871252 2.43391 1.00188Z" fill="#FFFDD0"/>
</svg>
