<svg width="24" height="24" viewBox="0 0 24 24" fill="none" xmlns="http://www.w3.org/2000/svg">
<path d="M8.3845 2.4792L7.5241 2.7384C6.75799 2.96944 6.07383 3.41452 5.55213 4.02125C5.03043 4.62799 4.69291 5.37113 4.5793 6.1632C4.2229 8.6448 5.0197 11.5464 6.9409 14.874C8.8573 18.1932 10.9669 20.3316 13.2889 21.2676C14.035 21.5683 14.8517 21.6484 15.642 21.4984C16.4323 21.3485 17.1629 20.9747 17.7469 20.4216L18.3973 19.8048C18.8196 19.4051 19.0825 18.8656 19.137 18.2867C19.1915 17.7078 19.034 17.1287 18.6937 16.6572L17.0665 14.4012C16.8465 14.0966 16.5367 13.8685 16.1806 13.7489C15.8244 13.6292 15.4398 13.624 15.0805 13.734L12.6193 14.4864L12.5557 14.4984C12.2845 14.538 11.6581 13.9512 10.8781 12.6C10.0621 11.1864 9.8941 10.3596 10.1185 10.146L11.3701 8.9784C11.8273 8.55145 12.1397 7.99225 12.2634 7.37902C12.3871 6.7658 12.316 6.12924 12.0601 5.5584L11.2657 3.7932C11.0268 3.26202 10.6029 2.83582 10.0731 2.59406C9.54317 2.3523 8.94225 2.31148 8.3845 2.4792ZM10.1737 4.2852L10.9657 6.0504C11.1194 6.39279 11.1622 6.77465 11.0882 7.14257C11.0142 7.5105 10.827 7.84609 10.5529 8.1024L9.2977 9.2712C8.4937 10.032 8.7601 11.3304 9.8401 13.2C10.8553 14.9592 11.7817 15.828 12.7777 15.6768L12.9265 15.6456L15.4321 14.8812C15.5519 14.8444 15.6801 14.846 15.7989 14.8859C15.9177 14.9257 16.0211 15.0017 16.0945 15.1032L17.7217 17.3592C17.8921 17.5949 17.971 17.8846 17.9439 18.1742C17.9167 18.4638 17.7853 18.7336 17.5741 18.9336L16.9225 19.5504C16.5053 19.9452 15.9835 20.212 15.4192 20.319C14.8549 20.426 14.2717 20.3687 13.7389 20.154C11.7013 19.3332 9.7753 17.3808 7.9813 14.274C6.1825 11.16 5.4541 8.5116 5.7673 6.3336C5.84837 5.76772 6.08944 5.23678 6.46212 4.8033C6.8348 4.36982 7.32358 4.05184 7.8709 3.8868L8.7313 3.6276C9.01025 3.54378 9.31016 3.56428 9.57511 3.68527C9.84007 3.80627 10.052 4.0195 10.1713 4.2852" fill="#FFFDD0"/>
</svg>
