<svg width="19" height="36" viewBox="0 0 19 36" fill="none" xmlns="http://www.w3.org/2000/svg">
<path d="M16.566 1.00188L1.01997 16.9499C0.746928 17.23 0.594116 17.6057 0.594116 17.9969C0.594116 18.3881 0.746928 18.7638 1.01997 19.0439L16.566 34.9979C16.6932 35.1285 16.8452 35.2323 17.0132 35.3032C17.1812 35.3741 17.3616 35.4107 17.544 35.4107C17.7263 35.4107 17.9068 35.3741 18.0747 35.3032C18.2427 35.2323 18.3948 35.1285 18.522 34.9979C18.7837 34.73 18.9302 34.3704 18.9302 33.9959C18.9302 33.6214 18.7837 33.2618 18.522 32.9939L3.90297 17.9969L18.522 3.00288C18.7828 2.73514 18.9287 2.37615 18.9287 2.00238C18.9287 1.62862 18.7828 1.26963 18.522 1.00188C18.3948 0.871252 18.2427 0.767425 18.0747 0.696531C17.9068 0.625636 17.7263 0.589111 17.544 0.589111C17.3616 0.589111 17.1812 0.625636 17.0132 0.696531C16.8452 0.767425 16.6932 0.871252 16.566 1.00188Z" fill="#FFFDD0"/>
</svg>
