<svg width="40" height="40" viewBox="0 0 40 40" fill="none" xmlns="http://www.w3.org/2000/svg">
<path fill-rule="evenodd" clip-rule="evenodd" d="M32.8096 40H6.03295C5.58749 40 5.20197 39.7754 5.10684 39.46L0.41463 23.907C0.353445 23.7039 0.422571 23.4917 0.602359 23.3296C0.782147 23.1679 1.05368 23.0738 1.34072 23.0738H37.7596C38.0483 23.0738 38.3215 23.1691 38.5013 23.3327C38.6811 23.4966 38.7481 23.7106 38.6832 23.9146L33.7332 39.4676C33.6339 39.7793 33.2509 40 32.8096 40ZM6.79608 38.6267H32.0553L36.5682 24.447H2.51786L6.79608 38.6267Z" fill="#FFFDD0"/>
<path fill-rule="evenodd" clip-rule="evenodd" d="M12.6793 40C12.2062 40 11.7972 39.7438 11.7394 39.395L9.16213 23.842C9.0997 23.4656 9.47056 23.1235 9.99023 23.0786C10.5094 23.0321 10.9821 23.302 11.0446 23.6784L13.6218 39.2314C13.6842 39.6078 13.3134 39.9499 12.7937 39.9948C12.7552 39.9985 12.717 40 12.6793 40Z" fill="#FFFDD0"/>
<path fill-rule="evenodd" clip-rule="evenodd" d="M26.3321 40C26.2932 40 26.2533 39.9982 26.2139 39.9945C25.6943 39.9478 25.3255 39.6045 25.3905 39.2284L28.0653 23.6754C28.1299 23.299 28.6034 23.0319 29.1235 23.0789C29.6431 23.1256 30.0119 23.469 29.9469 23.8451L27.2721 39.3981C27.2117 39.7456 26.8031 40 26.3321 40Z" fill="#FFFDD0"/>
<path fill-rule="evenodd" clip-rule="evenodd" d="M19.5321 40C19.0088 40 18.5842 39.6925 18.5842 39.3134V23.7604C18.5842 23.3813 19.0087 23.0738 19.5321 23.0738C20.0555 23.0738 20.4801 23.3813 20.4801 23.7604V39.3134C20.48 39.6925 20.056 40 19.5321 40Z" fill="#FFFDD0"/>
<path fill-rule="evenodd" clip-rule="evenodd" d="M31.3529 24.447C31.3013 24.447 31.2494 24.444 31.1966 24.4376C21.3696 23.258 8.43406 18.5325 5.8669 17.5694C4.30382 17.9783 3.18578 18.6959 2.54042 19.7049C1.57953 21.2081 1.92398 22.962 2.12221 23.3724C2.32629 23.5886 2.34933 23.8803 2.1486 24.1183C1.8758 24.4419 1.29207 24.5439 0.845345 24.3459C0.64167 24.2558 0.300573 24.1049 0.0960538 23.0331C0.010138 22.582 -0.0619272 21.8698 0.0822022 21.0384C0.503776 18.6075 2.48637 16.8788 5.6641 16.1703C5.89497 16.119 6.15941 16.1342 6.37567 16.2125C6.38027 16.2143 6.40038 16.2219 6.43559 16.2349C7.94419 16.809 21.4648 21.8771 31.5058 23.0822C32.0225 23.1442 32.3716 23.4978 32.2861 23.8721C32.2103 24.2087 31.8084 24.447 31.3529 24.447Z" fill="#FFFDD0"/>
<path fill-rule="evenodd" clip-rule="evenodd" d="M37.759 24.447C37.5553 24.447 37.35 24.3997 37.1773 24.3022C36.7642 24.0691 36.69 23.6377 37.0118 23.3385C37.9794 22.4384 38.3025 21.6668 37.9723 21.0448C37.2959 19.7717 34.005 19.0829 32.8933 18.9399C26.2261 18.1765 20.8646 15.9481 17.5402 14.2129C14.6914 12.7261 12.8358 11.3598 12.141 10.8174C10.0084 10.8699 8.47175 11.3328 7.56951 12.1958C5.93979 13.7543 6.70957 16.2179 6.83908 16.5919C6.87635 16.6654 6.89691 16.7446 6.89691 16.8272C6.89691 17.2063 6.47702 17.5138 5.9536 17.5138C5.53034 17.5138 5.14941 17.3104 5.03336 17.0157C4.97886 16.8776 3.72673 13.6049 6.05207 11.3729C7.38889 10.0898 9.57723 9.43924 12.5571 9.43924C12.8337 9.43924 13.0965 9.52667 13.2767 9.67877C13.2956 9.69485 15.2592 11.335 18.6951 13.1229C21.8452 14.7621 26.9183 16.8666 33.1984 17.5845C33.2038 17.5852 33.2093 17.5858 33.2147 17.5864C33.7582 17.6556 38.5607 18.328 39.7424 20.5515C40.3283 21.6543 39.9134 22.8758 38.5087 24.182C38.3205 24.356 38.041 24.447 37.759 24.447Z" fill="#FFFDD0"/>
<path fill-rule="evenodd" clip-rule="evenodd" d="M33.05 18.9493C32.9737 18.9493 32.8962 18.9427 32.8191 18.9287C32.3112 18.8368 32.0028 18.4637 32.1297 18.0957C32.9113 15.8349 32.6703 14.0475 31.4131 12.7832C29.6522 11.0129 26.3999 10.8122 26.3676 10.8104C26.2993 10.8065 26.2294 10.7974 26.164 10.7831C20.4296 9.53093 17.0947 5.97538 16.042 4.68072C14.6558 4.94449 13.702 5.42474 13.2021 6.11199C12.0835 7.64978 13.4065 9.82114 13.42 9.84297C13.6341 10.1884 13.4225 10.5949 12.946 10.7509C12.4695 10.9067 11.9092 10.7546 11.693 10.4097C11.6222 10.2965 9.97358 7.61487 11.5195 5.47875C12.379 4.29127 14.0074 3.53296 16.3597 3.22486C16.7737 3.17053 17.1873 3.32079 17.3759 3.59307C17.4069 3.6374 20.562 8.08842 26.6216 9.44834C27.3202 9.50148 30.8373 9.86847 32.9381 11.9676C34.5481 13.5764 34.8947 15.7505 33.9686 18.4293C33.8609 18.7414 33.4745 18.9493 33.05 18.9493Z" fill="#FFFDD0"/>
<path fill-rule="evenodd" clip-rule="evenodd" d="M26.4379 10.8125C26.3495 10.8125 26.2594 10.8034 26.1701 10.7846C25.6681 10.6775 25.3806 10.2959 25.5281 9.93223C26.3897 7.81006 26.2724 6.00027 25.179 4.55352C23.89 2.84816 21.4683 1.96479 19.9345 1.55592C20.1348 2.37672 19.9622 3.06003 19.4195 3.5964C18.4447 4.55958 16.7216 4.58722 16.5284 4.58722C16.005 4.58722 15.5804 4.27972 15.5804 3.90058C15.5804 3.52145 16.005 3.21393 16.5284 3.21393C16.5309 3.21393 17.4851 3.19177 17.8949 2.77984C18.2649 2.40829 18.1066 1.78753 17.9083 1.33248C17.7479 0.974894 17.8753 0.579994 18.2432 0.30707C18.6102 0.0350986 19.1504 -0.065976 19.6533 0.0432853C21.5487 0.442467 25.0143 1.47547 26.8418 3.89359C28.1862 5.67213 28.3559 7.83406 27.3468 10.3193C27.2257 10.6186 26.8477 10.8125 26.4379 10.8125ZM19.1165 1.36041C19.119 1.36104 19.1211 1.36133 19.1232 1.36193C19.1211 1.36133 19.119 1.36073 19.1165 1.36041ZM19.7141 0.913588C19.7149 0.915717 19.7158 0.917529 19.7166 0.919364C19.7158 0.917517 19.7149 0.915423 19.7141 0.913588Z" fill="#FFFDD0"/>
</svg>
