<svg width="24" height="24" viewBox="0 0 24 24" fill="none" xmlns="http://www.w3.org/2000/svg">
<path d="M18.3619 16.7962H10.806C9.97319 16.7938 9.16375 16.4999 8.50017 15.9588C7.83659 15.4178 7.35498 14.6592 7.12824 13.7976L4.65969 4.32663C4.65639 4.31451 4.65309 4.30207 4.65034 4.28967L4.3988 3.32544C4.23894 2.7182 3.89947 2.18345 3.43174 1.8021C2.964 1.42075 2.39347 1.21354 1.80644 1.21183H0.56361C0.414131 1.21183 0.270775 1.148 0.165078 1.03437C0.0593802 0.920734 0 0.766616 0 0.605917C0 0.445218 0.0593802 0.2911 0.165078 0.177469C0.270775 0.0638373 0.414131 0 0.56361 0H1.80644C2.63923 0.002294 3.44867 0.296163 4.11226 0.837135C4.77584 1.37811 5.25745 2.13674 5.48421 2.99822L5.62512 3.53847H20.1805C20.8011 3.53852 21.4125 3.70118 21.9615 4.01235C22.5106 4.32353 22.9808 4.77386 23.3316 5.32436C23.6823 5.87486 23.903 6.50896 23.9745 7.17178C24.0461 7.83461 23.9663 8.50618 23.7421 9.1284L21.9236 14.1734C21.6424 14.9437 21.1526 15.6055 20.5176 16.0731C19.8826 16.5407 19.1316 16.7926 18.3619 16.7962ZM5.94103 4.7503L8.21363 13.4704C8.37343 14.0777 8.71288 14.6126 9.18062 14.994C9.64837 15.3754 10.2189 15.5826 10.806 15.5843H18.3619C18.9044 15.5818 19.4338 15.4042 19.8814 15.0746C20.3289 14.745 20.6742 14.2785 20.8723 13.7355L22.6908 8.69054C22.849 8.25196 22.9054 7.77855 22.855 7.31129C22.8047 6.84403 22.6491 6.397 22.4019 6.00892C22.1546 5.62083 21.8231 5.30339 21.436 5.08408C21.049 4.86477 20.618 4.75021 20.1805 4.7503H5.94103Z" fill="#FFFDD0"/>
<path d="M9.73496 24C9.25386 23.9999 8.78359 23.8465 8.38361 23.5591C7.98362 23.2717 7.67189 22.8633 7.48782 22.3854C7.30375 21.9076 7.25562 21.3818 7.34951 20.8745C7.4434 20.3673 7.67509 19.9013 8.01529 19.5356C8.3555 19.1699 8.78893 18.9209 9.26078 18.82C9.73263 18.7192 10.2217 18.771 10.6662 18.9689C11.1106 19.1668 11.4905 19.502 11.7578 19.9321C12.0251 20.3621 12.1677 20.8677 12.1677 21.3849C12.1671 22.0783 11.9105 22.7431 11.4544 23.2334C10.9983 23.7237 10.3799 23.9994 9.73496 24ZM9.73496 19.9816C9.47681 19.9817 9.22447 20.064 9.00986 20.2183C8.79524 20.3725 8.62799 20.5917 8.52923 20.8481C8.43048 21.1045 8.40467 21.3867 8.45507 21.6588C8.50547 21.931 8.6298 22.181 8.81236 22.3773C8.99492 22.5735 9.2275 22.7071 9.48069 22.7612C9.73388 22.8153 9.99631 22.7875 10.2348 22.6813C10.4733 22.5751 10.6771 22.3952 10.8205 22.1645C10.964 21.9337 11.0405 21.6624 11.0405 21.3849C11.0401 21.0128 10.9024 20.6561 10.6577 20.393C10.4129 20.1299 10.0811 19.982 9.73496 19.9816Z" fill="#FFFDD0"/>
<path d="M17.8127 24C17.3315 24 16.8612 23.8467 16.4612 23.5594C16.0611 23.2721 15.7493 22.8637 15.5651 22.3859C15.381 21.908 15.3328 21.3822 15.4266 20.8749C15.5204 20.3676 15.7521 19.9016 16.0922 19.5359C16.4324 19.1701 16.8659 18.921 17.3377 18.8201C17.8096 18.7191 18.2987 18.7709 18.7432 18.9688C19.1877 19.1668 19.5676 19.5019 19.8349 19.932C20.1022 20.3621 20.2449 20.8677 20.2449 21.3849C20.2441 22.0782 19.9876 22.7428 19.5317 23.233C19.0757 23.7232 18.4575 23.9991 17.8127 24ZM17.8127 19.9816C17.5545 19.9816 17.3021 20.0638 17.0874 20.218C16.8727 20.3721 16.7054 20.5913 16.6065 20.8477C16.5077 21.1041 16.4818 21.3862 16.5322 21.6585C16.5825 21.9307 16.7068 22.1808 16.8893 22.377C17.0718 22.5733 17.3044 22.707 17.5576 22.7612C17.8108 22.8153 18.0733 22.7876 18.3118 22.6814C18.5503 22.5752 18.7542 22.3953 18.8977 22.1645C19.0411 21.9338 19.1177 21.6624 19.1177 21.3849C19.1172 21.0129 18.9796 20.6563 18.735 20.3933C18.4903 20.1302 18.1587 19.9822 17.8127 19.9816Z" fill="#FFFDD0"/>
</svg>
